General

Complete name                  : One Piece Movie 8 2007 BDRip 720p Dual-Audio[Eng+Jap] ~ BRAR
Format                         : Matroska
Format version                 : Version 2
File size                      : 2.80 GiB
Duration                       : 1h 29mn
Overall bit rate               : 4 461 Kbps
Movie name                     : One Piece Movie 8 2007 BDRip 720p - The Desert Princess & The Pirates - Adventures in Alabasta Dual-Audio[Eng+Jap] ~ BRAR
Encoded date                   : UTC 2012-05-24 07:16:24
Writing application            : mkvmerge v4.4.0 ('Die Wiederkehr') built on Oct 31 2010 21:52:48
Writing library                : libebml v1.0.0 + libmatroska v1.0.0

Video
ID                             : 1
Format                         : AVC
Format/Info                    : Advanced Video Codec
Format profile                 : High@L4.1
Format settings, CABAC         : Yes
Format settings, ReFrames      : 9 frames
Muxing mode                    : Header stripping
Codec ID                       : V_MPEG4/ISO/AVC
Duration                       : 1h 29mn
Bit rate                       : 3 500 Kbps
Width                          : 1 280 pixels
Height                         : 720 pixels
Display aspect ratio           : 16:9
Frame rate                     : 23.976 fps
Color space                    : YUV
Chroma subsampling             : 4:2:0
Bit depth                      : 8 bits
Scan type                      : Progressive
Bits/(Pixel*Frame)             : 0.158
Stream size                    : 2.14 GiB (76%)
Title                          : 720p HD Video
Writing library                : x264 core 118 r2085 8a62835
Language                       : Japanese

Audio #1
ID                             : 2
Format                         : AC-3
Format/Info                    : Audio Coding 3
Mode extension                 : CM (complete main)
Muxing mode                    : Header stripping
Codec ID                       : A_AC3
Duration                       : 1h 29mn
Bit rate mode                  : Constant
Bit rate                       : 320 Kbps
Channel(s)                     : 2 channels
Channel positions              : Front: L R
Sampling rate                  : 48.0 KHz
Bit depth                      : 16 bits
Compression mode               : Lossy
Stream size                    : 206 MiB (7%)
Title                          : English ~ BRAR

Audio #2
ID                             : 3
Format                         : AC-3
Format/Info                    : Audio Coding 3
Mode extension                 : CM (complete main)
Muxing mode                    : Header stripping
Codec ID                       : A_AC3
Duration                       : 1h 29mn
Bit rate mode                  : Constant
Bit rate                       : 640 Kbps
Channel(s)                     : 6 channels
Channel positions              : Front: L C R, Side: L R, LFE
Sampling rate                  : 48.0 KHz
Bit depth                      : 16 bits
Compression mode               : Lossy
Stream size                    : 412 MiB (14%)
Title                          : Japanese ~ BRAR

Text
ID                             : 4
Format                         : UTF-8
Codec ID                       : S_TEXT/UTF8
Codec ID/Info                  : UTF-8 Plain Text
Title                          : English ~ BRAR

